<?xml version="1.0" standalone="no"?>
<!DOCTYPE svg PUBLIC "-//W3C//DTD SVG 20010904//EN"
 "http://www.w3.org/TR/2001/REC-SVG-20010904/DTD/svg10.dtd">
<svg version="1.0" xmlns="http://www.w3.org/2000/svg"
 width="1772.000000pt" height="1772.000000pt" viewBox="0 0 1772.000000 1772.000000"
 preserveAspectRatio="xMidYMid meet">
<metadata>
Created by potrace 1.16, written by Peter Selinger 2001-2019
</metadata>
<g transform="translate(0.000000,1772.000000) scale(0.100000,-0.100000)"
fill="#000000" stroke="none">
<path d="M8320 15904 c-633 -44 -1204 -155 -1775 -345 -117 -39 -218 -75 -225
-79 -11 -7 17 -89 124 -377 76 -202 142 -371 145 -376 4 -4 108 26 232 67 495
164 956 255 1494 296 257 20 906 10 1036 -16 24 -4 27 -1 32 28 11 64 80 768
76 772 -2 3 -54 10 -114 16 -104 11 -908 22 -1025 14z"/>
<path d="M10992 15473 c-11 -32 -70 -201 -131 -376 -61 -175 -111 -322 -111
-325 0 -4 42 -22 93 -41 780 -286 1531 -759 2134 -1344 73 -71 137 -127 142
-125 15 5 566 541 569 553 1 6 -59 72 -135 146 -681 664 -1502 1185 -2398
1520 -71 27 -133 49 -137 49 -3 0 -15 -26 -26 -57z"/>
<path d="M4794 14679 c-686 -476 -1321 -1122 -1791 -1825 -138 -205 -275 -436
-266 -445 4 -4 163 -95 352 -202 l344 -196 87 143 c402 661 911 1229 1519
1696 75 58 173 130 218 160 45 30 82 60 83 66 0 15 -432 657 -446 661 -5 2
-50 -24 -100 -58z"/>
<path d="M8785 12853 c-506 -32 -889 -128 -1250 -313 -220 -112 -343 -200
-508 -359 -228 -220 -384 -471 -485 -776 -130 -392 -135 -1042 -11 -1403 87
-252 221 -456 439 -672 117 -116 213 -191 356 -276 230 -137 740 -380 1069
-509 66 -26 278 -112 470 -192 700 -288 959 -444 1115 -670 64 -91 85 -141
122 -288 42 -169 42 -310 -1 -481 -40 -162 -61 -212 -136 -324 -78 -118 -171
-212 -295 -300 -178 -126 -302 -181 -536 -240 -255 -64 -338 -75 -609 -75
-327 0 -515 25 -923 126 -329 80 -653 194 -941 330 -68 33 -126 58 -128 56 -4
-5 -83 -876 -83 -921 0 -32 3 -34 88 -74 292 -135 675 -256 1002 -316 364 -66
688 -90 1124 -83 506 8 824 53 1152 162 600 201 1025 542 1258 1010 135 274
189 492 205 840 32 693 -104 1102 -503 1523 -283 298 -650 493 -1699 902 -455
177 -501 196 -693 293 -240 119 -440 253 -541 360 -66 69 -146 191 -173 263
-50 135 -74 263 -74 404 0 119 4 150 32 259 37 145 72 224 146 329 74 106 181
206 307 289 155 102 298 154 583 213 297 61 689 50 1091 -31 322 -64 609 -147
884 -256 90 -35 164 -63 165 -61 5 6 158 940 154 943 -8 7 -356 117 -473 149
-294 81 -652 139 -1015 166 -123 9 -562 11 -685 3z"/>
<path d="M11280 12670 c-1 -3 -57 -331 -124 -730 -107 -638 -124 -725 -140
-728 -10 -2 -91 32 -180 76 -903 446 -1926 568 -2492 297 -176 -85 -325 -221
-394 -361 -36 -74 -65 -202 -55 -242 6 -23 10 -17 26 48 78 304 341 517 742
600 596 123 1470 -44 2210 -422 86 -45 159 -79 162 -76 8 8 256 1520 251 1532
-2 6 -5 9 -6 6z"/>
<path d="M14325 12359 c-181 -110 -336 -204 -344 -208 -10 -6 0 -31 46 -112
416 -723 684 -1545 768 -2354 9 -88 18 -174 21 -190 l4 -30 358 27 c196 15
376 27 400 27 l42 1 0 48 c0 26 -9 126 -20 224 -92 801 -310 1549 -662 2261
-101 205 -267 508 -277 506 -3 0 -154 -91 -336 -200z"/>
<path d="M2101 10918 c-59 -183 -156 -641 -196 -923 -46 -327 -56 -476 -62
-866 -7 -490 13 -799 78 -1217 21 -134 24 -143 43 -138 12 2 190 34 396 71
206 37 376 69 378 70 2 1 -8 79 -22 171 -51 344 -67 565 -67 919 -1 573 63
1062 210 1610 17 60 29 110 28 111 -1 0 -168 49 -372 108 -203 59 -377 109
-387 112 -12 3 -19 -4 -27 -28z"/>
<path d="M6161 10260 c-2 -46 48 -258 88 -378 128 -383 434 -771 805 -1021
246 -166 722 -399 1257 -615 926 -373 1202 -508 1355 -663 62 -63 126 -183
144 -268 6 -30 14 -55 17 -55 3 0 3 36 1 80 -4 66 -11 92 -42 155 -114 230
-348 358 -1536 838 -532 215 -1034 469 -1265 642 -110 82 -345 319 -435 440
-160 214 -263 424 -335 680 -57 208 -53 194 -54 165z"/>
<path d="M14754 8023 c-153 -885 -457 -1659 -935 -2378 -113 -170 -119 -180
-102 -196 16 -14 600 -434 630 -452 8 -5 58 62 146 195 519 781 882 1682 1042
2592 14 81 25 150 23 152 -4 3 -767 124 -786 124 -6 0 -14 -17 -18 -37z"/>
<path d="M11551 6824 c-82 -323 -119 -431 -210 -619 -300 -620 -861 -1044
-1641 -1240 -335 -84 -591 -115 -1031 -122 -564 -9 -964 33 -1454 154 -327 80
-608 181 -907 324 -92 45 -172 78 -178 74 -19 -12 -10 -33 23 -53 66 -41 296
-151 419 -201 429 -173 918 -287 1473 -343 206 -21 858 -17 1065 5 614 68
1090 223 1489 487 525 347 847 844 955 1474 16 93 15 126 -3 60z"/>
<path d="M2768 6412 c-197 -87 -358 -160 -358 -164 0 -16 158 -344 233 -483
340 -635 761 -1194 1278 -1700 190 -185 385 -358 399 -353 5 2 107 120 226
263 119 143 234 281 255 306 l38 46 -142 125 c-485 430 -918 962 -1248 1536
-85 147 -269 510 -284 560 -3 12 -14 22 -23 21 -9 0 -178 -71 -374 -157z"/>
<path d="M12710 4389 c-69 -62 -317 -257 -420 -331 -548 -395 -1202 -714
-1860 -904 -85 -25 -155 -46 -156 -47 -2 -3 198 -771 202 -776 6 -7 84 14 287
75 865 262 1691 710 2405 1304 106 89 121 105 110 119 -56 71 -513 586 -522
588 -6 1 -27 -11 -46 -28z"/>
<path d="M5830 3204 c-99 -195 -180 -359 -180 -363 0 -21 450 -220 720 -319
544 -199 1117 -328 1720 -388 92 -9 308 -18 489 -21 l324 -6 -6 279 c-4 154
-7 337 -7 408 l0 129 -67 -6 c-94 -7 -498 9 -688 28 -678 67 -1341 248 -1957
535 l-167 78 -181 -354z"/>
</g>
</svg>
